<svg width="240" height="240" viewBox="0 0 240 240" fill="none" xmlns="http://www.w3.org/2000/svg">
<path fill-rule="evenodd" clip-rule="evenodd" d="M120 -0.0078125C53.7462 -0.0078125 0.0400391 53.6983 0.0400391 119.952C0.0400391 186.206 53.7462 239.912 120 239.912C186.254 239.912 239.96 186.206 239.96 119.952C239.96 53.6983 186.254 -0.0078125 120 -0.0078125ZM78.0141 89.9623C78.0141 84.4486 79.1001 78.9889 81.2101 73.8949C83.3201 68.8009 86.4128 64.1724 90.3116 60.2737C94.2103 56.3749 98.8388 53.2822 103.933 51.1722C109.027 49.0622 114.486 47.9762 120 47.9762C125.514 47.9762 130.974 49.0622 136.068 51.1722C141.162 53.2822 145.79 56.3749 149.689 60.2737C153.588 64.1724 156.68 68.8009 158.79 73.8949C160.9 78.9889 161.986 84.4486 161.986 89.9623C161.986 101.098 157.563 111.777 149.689 119.651C141.815 127.525 131.136 131.948 120 131.948C108.865 131.948 98.1855 127.525 90.3116 119.651C82.4376 111.777 78.0141 101.098 78.0141 89.9623ZM195.071 179.74C186.088 191.033 174.672 200.151 161.673 206.416C148.675 212.681 134.43 215.93 120 215.92C105.571 215.93 91.3255 212.681 78.3269 206.416C65.3283 200.151 53.9118 191.033 44.9291 179.74C64.3747 165.789 90.9098 155.94 120 155.94C149.09 155.94 175.626 165.789 195.071 179.74Z" fill="#E2E2E2"/>
</svg>
