<svg width="43" height="43" viewBox="0 0 43 43" fill="none" xmlns="http://www.w3.org/2000/svg">
<path fill-rule="evenodd" clip-rule="evenodd" d="M21.146 0.0996094C9.55554 0.0996094 0.145996 9.50914 0.145996 21.0996C0.145996 32.6901 9.55554 42.0996 21.146 42.0996C32.7365 42.0996 42.146 32.6901 42.146 21.0996C42.146 9.50914 32.7365 0.0996094 21.146 0.0996094ZM21.146 3.56748C30.8214 3.56748 38.6781 11.4242 38.6781 21.0996C38.6781 30.775 30.8214 38.6317 21.146 38.6317C11.4706 38.6317 3.61389 30.775 3.61389 21.0996C3.61389 11.4242 11.4706 3.56748 21.146 3.56748Z" fill="#3F0664"/>
<path fill-rule="evenodd" clip-rule="evenodd" d="M16.4875 23.6345C15.8397 23.0854 14.8917 23.0854 14.2439 23.6345C14.2439 23.6345 12.3437 25.2539 11.2011 26.9594C10.5464 27.9353 10.1572 28.9625 10.1572 29.8216C10.1572 32.6962 12.4911 35.03 15.3657 35.03C18.2403 35.03 20.5742 32.6962 20.5742 29.8216C20.5742 28.9625 20.185 27.9353 19.5303 26.9594C18.3877 25.2539 16.4875 23.6345 16.4875 23.6345ZM15.3657 27.3445C15.0752 27.6461 14.7624 27.9923 14.4733 28.3578C14.212 28.6859 13.9687 29.0306 13.7949 29.3698C13.7115 29.5324 13.624 29.6784 13.624 29.8216C13.624 30.7821 14.4052 31.5633 15.3657 31.5633C16.3262 31.5633 17.1074 30.7821 17.1074 29.8216C17.1074 29.6784 17.0198 29.5324 16.9364 29.3698C16.7627 29.0306 16.5194 28.6859 16.2581 28.3578C15.969 27.9923 15.6562 27.6461 15.3657 27.3445Z" fill="#D90D92"/>
<path fill-rule="evenodd" clip-rule="evenodd" d="M18.7975 29.9423C20.647 29.4221 23.3057 29.2256 25.9645 30.998C26.7601 31.5279 27.8371 31.314 28.3689 30.5164C28.8987 29.7207 28.6848 28.6438 27.8872 28.112C24.165 25.6306 20.4467 25.8752 17.8573 26.6054C16.9364 26.8636 16.3989 27.823 16.6589 28.744C16.919 29.6649 17.8766 30.2024 18.7975 29.9423Z" fill="#D90D92"/>
<path fill-rule="evenodd" clip-rule="evenodd" d="M12.0023 16.5695C12.0023 16.5695 12.8751 12.8839 16.7803 12.8839C17.7378 12.8839 18.5143 12.1075 18.5143 11.1499C18.5143 10.1924 17.7378 9.41602 16.7803 9.41602C10.0854 9.41602 8.62308 15.7854 8.62308 15.7854C8.4073 16.7178 8.98913 17.6504 9.92161 17.8661C10.8522 18.0819 11.7846 17.502 12.0023 16.5695Z" fill="#D90D92"/>
<path fill-rule="evenodd" clip-rule="evenodd" d="M33.5283 15.8908C33.5283 15.8908 32.066 9.52148 25.3711 9.52148C24.4135 9.52148 23.6371 10.2979 23.6371 11.2554C23.6371 12.2129 24.4135 12.9894 25.3711 12.9894C29.2763 12.9894 30.149 16.675 30.149 16.675C30.3667 17.6075 31.2992 18.1874 32.2298 17.9716C33.1622 17.7558 33.7441 16.8233 33.5283 15.8908Z" fill="#D90D92"/>
<path d="M15.3647 22.0637C16.4288 22.0637 17.2913 21.2012 17.2913 20.1373C17.2913 19.0734 16.4288 18.2109 15.3647 18.2109C14.3007 18.2109 13.4381 19.0734 13.4381 20.1373C13.4381 21.2012 14.3007 22.0637 15.3647 22.0637Z" fill="#D90D92"/>
<path d="M27.4812 22.0637C28.5452 22.0637 29.4077 21.2012 29.4077 20.1373C29.4077 19.0734 28.5452 18.2109 27.4812 18.2109C26.4171 18.2109 25.5545 19.0734 25.5545 20.1373C25.5545 21.2012 26.4171 22.0637 27.4812 22.0637Z" fill="#D90D92"/>
</svg>
