<svg width="120" height="120" viewBox="0 0 120 120" fill="none" xmlns="http://www.w3.org/2000/svg">
<g clip-path="url(#clip0_4073_4327)">
<rect width="120" height="120" rx="60" fill="white"/>
<rect x="-1.52344" y="-1.52344" width="123.047" height="123.047" fill="url(#paint0_linear_4073_4327)"/>
<g clip-path="url(#clip1_4073_4327)">
<path fill-rule="evenodd" clip-rule="evenodd" d="M59.4858 12.711C84.7138 12.711 105.343 32.317 106.876 57.0799H104.116C102.583 33.8354 83.1903 15.4613 59.4858 15.4613C34.7847 15.4613 14.7595 35.4207 14.7595 60.0404C14.7595 84.6601 34.7847 104.619 59.4858 104.619C64.9855 104.619 70.2458 103.636 75.1131 101.821C76.2629 102.499 77.5277 102.986 78.8787 103.254C72.9573 105.899 66.394 107.37 59.4858 107.37C33.2613 107.37 12 86.1785 12 60.0404C12 33.9023 33.2613 12.711 59.4858 12.711ZM80.1243 99.6057C89.3608 94.8117 96.7002 86.8948 100.753 77.2685H103.733C99.8525 87.1622 92.7335 95.4324 83.679 100.79C82.4046 100.637 81.1974 100.226 80.1338 99.6153L80.1243 99.6057Z" fill="#D90D92"/>
<path fill-rule="evenodd" clip-rule="evenodd" d="M74.3756 91.4405V69.9723C74.3756 64.7867 70.7634 60.4224 65.9248 59.2382C70.773 58.054 74.3756 53.6992 74.3756 48.5041C74.3756 42.4112 69.4028 37.4548 63.2899 37.4548H48.9272V38.0851H59.6968C65.4553 38.0851 70.1502 42.755 70.1502 48.5041C70.1502 54.2531 65.4649 58.923 59.6968 58.923H48.9272V59.5533H59.6968C65.4649 59.5533 70.1502 64.2232 70.1502 69.9723V91.431C70.1502 97.5238 75.123 102.48 81.236 102.48H84.829V101.85C79.0706 101.85 74.3756 97.18 74.3756 91.431V91.4405Z" fill="#D90D92"/>
<path fill-rule="evenodd" clip-rule="evenodd" d="M33.2036 38.0946C38.9621 38.0946 43.657 42.7645 43.657 48.5136V80.7159H47.0201V37.4739H33.2036V38.1042V38.0946Z" fill="#D90D92"/>
<path d="M100.693 83.6249C105.744 74.8767 107.841 64.7336 106.673 54.6998L103.933 55.0186C105.033 64.4634 103.059 74.0111 98.3043 82.2458L100.693 83.6249Z" fill="#D90D92"/>
</g>
</g>
<defs>
<linearGradient id="paint0_linear_4073_4327" x1="60" y1="-1.52344" x2="60" y2="121.523" gradientUnits="userSpaceOnUse">
<stop stop-color="white"/>
<stop offset="1" stop-color="#EBEBEB"/>
</linearGradient>
<clipPath id="clip0_4073_4327">
<rect width="120" height="120" rx="60" fill="white"/>
</clipPath>
<clipPath id="clip1_4073_4327">
<rect width="96" height="94.6988" fill="white" transform="translate(12 12.7092)"/>
</clipPath>
</defs>
</svg>
