<svg width="27" height="27" viewBox="0 0 27 27" fill="none" xmlns="http://www.w3.org/2000/svg">
<path d="M13.344 13.7991C12.382 13.8002 11.4414 13.5159 10.6411 12.9822C9.84077 12.4486 9.21672 11.6895 8.84788 10.8011C8.47904 9.91272 8.382 8.93487 8.56902 7.9913C8.75604 7.04773 9.21873 6.18083 9.89855 5.50027C10.5784 4.81971 11.4448 4.35609 12.3881 4.16804C13.3315 3.97999 14.3095 4.07598 15.1983 4.44385C16.0871 4.81172 16.8468 5.43495 17.3813 6.2347C17.9158 7.03444 18.2012 7.97475 18.2012 8.93668C18.1998 10.2249 17.6877 11.4601 16.7773 12.3716C15.8669 13.283 14.6322 13.7964 13.344 13.7991ZM13.344 5.66164C12.6947 5.6606 12.0598 5.85223 11.5195 6.21227C10.9793 6.57232 10.558 7.08458 10.3091 7.6842C10.0602 8.28381 9.99475 8.94381 10.1212 9.58062C10.2476 10.2174 10.5601 10.8024 11.0192 11.2615C11.4782 11.7206 12.0632 12.0331 12.7 12.1595C13.3368 12.2859 13.9968 12.2205 14.5965 11.9716C15.1961 11.7226 15.7083 11.3014 16.0684 10.7611C16.4284 10.2209 16.6201 9.58592 16.619 8.93668C16.619 8.06809 16.274 7.23507 15.6598 6.62088C15.0456 6.00669 14.2126 5.66164 13.344 5.66164ZM13.344 26.3403C10.4329 26.3376 7.6067 25.359 5.31721 23.561C5.23169 23.4932 5.16091 23.4086 5.10922 23.3125C5.05753 23.2164 5.02601 23.1107 5.0166 23.002V22.7541C5.0166 21.6598 5.23213 20.5763 5.65089 19.5653C6.06964 18.5544 6.68342 17.6358 7.45718 16.862C8.23093 16.0883 9.14952 15.4745 10.1605 15.0557C11.1714 14.637 12.255 14.4215 13.3492 14.4215C14.4435 14.4215 15.527 14.637 16.538 15.0557C17.549 15.4745 18.4676 16.0883 19.2413 16.862C20.0151 17.6358 20.6288 18.5544 21.0476 19.5653C21.4664 20.5763 21.6819 21.6598 21.6819 22.7541V23.002C21.6725 23.1107 21.641 23.2164 21.5893 23.3125C21.5376 23.4086 21.4668 23.4932 21.3813 23.561C19.0889 25.3612 16.2587 26.3399 13.344 26.3403ZM6.59875 22.5484C8.55485 23.9837 10.9178 24.7576 13.344 24.7576C15.7702 24.7576 18.1331 23.9837 20.0892 22.5484C20.0203 20.8056 19.2795 19.1572 18.022 17.9485C16.7646 16.7398 15.0881 16.0647 13.344 16.0647C11.5998 16.0647 9.92336 16.7398 8.66592 17.9485C7.40849 19.1572 6.66768 20.8056 6.59875 22.5484Z" fill="#676767"/>
<path d="M13.3437 26.3398C10.2692 26.3414 7.29363 25.2533 4.94546 23.2687C2.59729 21.2841 1.02848 18.5316 0.517641 15.4998C0.0068069 12.4681 0.587014 9.35337 2.15522 6.70891C3.72342 4.06445 6.17813 2.06137 9.08338 1.05541C11.9886 0.0494492 15.1564 0.105723 18.0241 1.21424C20.8918 2.32275 23.2738 4.41175 24.7471 7.11024C26.2204 9.80873 26.6896 12.9421 26.0714 15.9538C25.4532 18.9654 23.7876 21.6606 21.3704 23.5605C19.0809 25.3585 16.2548 26.3371 13.3437 26.3398ZM13.3437 1.93254C10.9713 1.93265 8.65793 2.67243 6.72567 4.0489C4.79342 5.42538 3.3384 7.37005 2.56316 9.61221C1.78792 11.8544 1.73103 14.2825 2.40042 16.5585C3.06981 18.8345 4.43216 20.8451 6.29784 22.3106C7.98102 23.6315 10.0016 24.4527 12.1291 24.6804C14.2566 24.9081 16.4052 24.5332 18.3299 23.5984C20.2545 22.6636 21.8775 21.2065 23.0138 19.3936C24.1501 17.5806 24.7539 15.4847 24.7562 13.3451C24.752 10.3196 23.5483 7.41918 21.4089 5.27982C19.2696 3.14046 16.3692 1.93672 13.3437 1.93254Z" fill="#676767"/>
</svg>
