<svg width="811" height="124" viewBox="0 0 811 124" fill="none" xmlns="http://www.w3.org/2000/svg">
<circle cx="382" cy="52" r="40.5" fill="#E371BB" stroke="white" stroke-width="3"/>
<mask id="mask0_1963_136" style="mask-type:alpha" maskUnits="userSpaceOnUse" x="343" y="13" width="78" height="78">
<circle cx="382" cy="52" r="39" fill="#E371BB"/>
</mask>
<g mask="url(#mask0_1963_136)">
<path d="M399.454 60.1899V32.4954H395.908V31H382.133V32.4954H378.587V39.246C378.852 39.7843 378.997 40.3825 378.997 41.0148C378.997 41.6471 378.852 42.2453 378.587 42.7836V45.031C379.339 45.1762 380.022 45.4753 380.655 45.8855V44.6721H397.104V47.2356H382.236C382.483 47.509 382.723 47.791 382.945 48.0901H397.104V50.6536H384.5C384.645 50.9441 384.774 51.2261 384.902 51.5081H397.104V54.0716H385.859C385.961 54.3963 386.03 54.6612 386.081 54.8407C386.166 55.1568 386.183 55.4731 386.149 55.7806H397.104V60.0531H386.944C387.098 60.3009 387.192 60.5915 387.192 60.9076H402.12V60.1899H399.454ZM397.104 43.6381H380.655V42.6811H397.104V43.6381ZM397.215 35.7681H380.655V34.9136H397.215V35.7681Z" fill="white"/>
<path d="M374.961 44.1991C376.717 44.1991 378.14 42.7755 378.14 41.0195C378.14 39.2634 376.717 37.8398 374.961 37.8398C373.205 37.8398 371.781 39.2634 371.781 41.0195C371.781 42.7755 373.205 44.1991 374.961 44.1991Z" fill="white"/>
<path d="M385.478 60.0602H384.567V56.8104C385.137 56.4471 385.437 55.7507 385.252 55.0638C384.146 50.9491 381.075 45.1844 377.213 45.813C376.903 45.7604 372.889 45.782 372.706 45.813C372.554 45.7882 372.534 45.7852 372.394 45.7852C367.311 45.7852 364.924 54.1094 364.667 55.0638C364.644 55.1507 364.633 55.2376 364.625 55.3243H362.813V56.1192H363.186V58.1063H361.894C361.4 58.1063 361 58.5066 361 59.0005V69.0355C361 69.4809 361.331 69.8339 361.758 69.9021V70.5011C361.758 70.7617 361.969 70.973 362.23 70.973C362.49 70.973 362.701 70.7617 362.701 70.5011V69.9297H367.893V70.5011C367.893 70.7617 368.104 70.973 368.365 70.973C368.625 70.973 368.837 70.7617 368.837 70.5011V69.9021C369.263 69.8339 369.594 69.4809 369.594 69.0355V59.0004C369.594 58.5065 369.194 58.1061 368.7 58.1061H367.408V56.4849C367.5 56.3758 367.571 56.2531 367.632 56.1191H367.781V55.7389C368.427 53.4479 369.859 50.3713 371.383 49.3299V58.5036L371.383 70.4262C371.383 71.3041 372.095 72.0159 372.972 72.0159C373.85 72.0159 374.562 71.3041 374.562 70.4262V58.5036H375.357V70.4262C375.357 71.3041 376.069 72.0159 376.947 72.0159C377.825 72.0159 378.536 71.3041 378.536 70.4262V56.9138L378.536 56.9129V49.3299C380.093 50.3941 381.558 53.5872 382.182 55.8912C382.339 56.4691 382.799 56.8703 383.342 57.0042V60.0603H382.431C381.956 60.0603 381.57 60.4458 381.57 60.9213V70.2278C381.57 70.7033 381.956 71.0888 382.431 71.0888H385.478C385.954 71.0888 386.339 70.7033 386.339 70.2278V60.9212C386.339 60.4457 385.954 60.0602 385.478 60.0602ZM363.857 58.1061V56.119H364.756C364.944 56.5408 365.307 56.8808 365.788 57.0107C365.927 57.048 366.066 57.0659 366.203 57.0659C366.389 57.0659 366.568 57.0291 366.738 56.9678V58.106L363.857 58.1061Z" fill="white"/>
<path d="M398.118 36.4453H379.924V41.8569H398.118V36.4453Z" fill="white"/>
<path d="M383.413 37.5586H384.137V40.8021H383.413V39.5261H382.123V40.8021H381.399V37.5586H382.123V38.9137H383.413V37.5586ZM387.663 40.3542C387.335 40.6744 386.932 40.8345 386.452 40.8345C385.973 40.8345 385.569 40.6744 385.241 40.3542C384.913 40.0342 384.749 39.6358 384.749 39.1595C384.749 38.6831 384.913 38.285 385.241 37.9647C385.569 37.6445 385.973 37.4844 386.452 37.4844C386.932 37.4844 387.335 37.6445 387.663 37.9647C387.991 38.2849 388.155 38.6831 388.155 39.1595C388.155 39.6358 387.991 40.0342 387.663 40.3542ZM387.417 39.1618C387.417 38.8727 387.324 38.6259 387.139 38.4219C386.953 38.2175 386.725 38.1154 386.454 38.1154C386.184 38.1154 385.955 38.2175 385.77 38.4219C385.584 38.6259 385.491 38.8727 385.491 39.1618C385.491 39.4512 385.584 39.697 385.77 39.8996C385.956 40.1022 386.184 40.2036 386.454 40.2036C386.725 40.2036 386.953 40.1021 387.139 39.8996C387.324 39.697 387.417 39.4512 387.417 39.1618ZM390.053 38.1851V40.8021H389.329V38.1851H388.41V37.5586H390.972V38.1851H390.053ZM393.839 37.5586V38.2036H392.225V38.8717H393.677V39.489H392.225V40.1619H393.89V40.8021H391.501V37.5586H393.839ZM394.535 40.8021V37.5586H395.259V40.1572H396.642V40.8022L394.535 40.8021Z" fill="white"/>
</g>
<g opacity="0.6">
<circle cx="562" cy="92" r="30.5" fill="#E371BB" stroke="white" stroke-width="3"/>
<mask id="mask1_1963_136" style="mask-type:alpha" maskUnits="userSpaceOnUse" x="532" y="62" width="60" height="60">
<circle cx="562" cy="91.9994" r="29.7143" fill="#E371BB"/>
</mask>
<g mask="url(#mask1_1963_136)">
<path d="M573.2 91.6V80.4C573.2 80.0287 573.053 79.6726 572.79 79.4101C572.527 79.1475 572.171 79 571.8 79C571.429 79 571.073 79.1475 570.81 79.4101C570.547 79.6726 570.4 80.0287 570.4 80.4V83.2H553.6V80.4C553.6 80.0287 553.452 79.6726 553.19 79.4101C552.927 79.1475 552.571 79 552.2 79C551.829 79 551.473 79.1475 551.21 79.4101C550.947 79.6726 550.8 80.0287 550.8 80.4V91.6C550.057 91.6 549.345 91.895 548.82 92.4201C548.295 92.9452 548 93.6574 548 94.4V102.8C548 103.171 548.147 103.527 548.41 103.79C548.673 104.053 549.029 104.2 549.4 104.2C549.771 104.2 550.127 104.053 550.39 103.79C550.653 103.527 550.8 103.171 550.8 102.8V100H573.2V102.8C573.2 103.171 573.347 103.527 573.61 103.79C573.873 104.053 574.229 104.2 574.6 104.2C574.971 104.2 575.327 104.053 575.59 103.79C575.853 103.527 576 103.171 576 102.8V94.4C576 93.6574 575.705 92.9452 575.18 92.4201C574.655 91.895 573.943 91.6 573.2 91.6ZM560.6 91.6H553.6V90.2C553.6 89.8287 553.747 89.4726 554.01 89.2101C554.273 88.9475 554.629 88.8 555 88.8H559.2C559.571 88.8 559.927 88.9475 560.19 89.2101C560.453 89.4726 560.6 89.8287 560.6 90.2V91.6ZM570.4 91.6H563.4V90.2C563.4 89.8287 563.547 89.4726 563.81 89.2101C564.073 88.9475 564.429 88.8 564.8 88.8H569C569.371 88.8 569.727 88.9475 569.99 89.2101C570.253 89.4726 570.4 89.8287 570.4 90.2V91.6Z" fill="white"/>
</g>
</g>
<g opacity="0.6">
<circle cx="162" cy="92" r="30.5" fill="#E371BB" stroke="white" stroke-width="3"/>
<mask id="mask2_1963_136" style="mask-type:alpha" maskUnits="userSpaceOnUse" x="132" y="62" width="60" height="60">
<circle cx="162" cy="91.9994" r="29.7143" fill="#E371BB"/>
</mask>
<g mask="url(#mask2_1963_136)">
<path d="M180.563 105.25H167.375V108.5H180.698C180.991 108.514 181.281 108.427 181.518 108.254C181.755 108.08 181.925 107.83 182 107.545V106.757C182 106.757 181.99 105.25 180.563 105.25ZM178.739 104.608C179.604 104.607 180.434 104.262 181.046 103.649C181.657 103.036 182 102.206 182 101.34C182 99.5308 180.537 98.0716 178.739 98.0716C178.31 98.0723 177.886 98.1575 177.491 98.3222C177.095 98.4869 176.736 98.7279 176.434 99.0314C176.132 99.335 175.892 99.6951 175.729 100.091C175.566 100.487 175.483 100.912 175.484 101.34C175.484 103.143 176.942 104.608 178.739 104.608ZM171.87 104.437C173.581 104.437 174.957 103.232 174.957 101.523C174.956 99.8176 173.575 98.9231 171.877 98.9101L167.375 99.4804V104.437H171.87ZM157.237 83.2581C159.235 83.2581 160.851 81.6331 160.851 79.6286C160.851 77.6242 159.235 76 157.237 76C155.241 76 153.623 77.6242 153.623 79.6286C153.623 81.6331 155.241 83.2581 157.237 83.2581ZM153.547 95.0036L153.515 94.9564L151.877 91.1426L151.874 98.75H156.769L157.839 97.6125L154.939 96.4961C154.252 96.2377 153.763 95.6527 153.547 95.0036ZM154.585 94.6615C154.743 95.0174 155.036 95.3058 155.405 95.4382L160.993 97.5093C161.163 97.5842 161.346 97.6248 161.532 97.6286C161.718 97.6325 161.903 97.5996 162.076 97.5318C162.25 97.464 162.408 97.3626 162.542 97.2336C162.675 97.1045 162.783 96.9503 162.857 96.7797C163.008 96.434 163.016 96.0425 162.88 95.6907C162.743 95.3389 162.473 95.0554 162.129 94.902L156.973 92.9552L155.381 89.1357L156.419 88.7489L157.769 92.0217L161.688 93.4744V89.4753L163.767 90.7127L164.804 95.9355C164.864 96.1122 164.958 96.2753 165.081 96.4154C165.204 96.5555 165.354 96.6698 165.522 96.7517C165.689 96.8336 165.871 96.8815 166.058 96.8926C166.244 96.9037 166.43 96.8777 166.606 96.8162C166.961 96.6901 167.252 96.4292 167.415 96.0901C167.579 95.7511 167.602 95.3613 167.48 95.0052L166.318 89.975C166.242 89.6965 166.083 89.4479 165.861 89.2624C165.266 88.6027 162.254 85.2349 162.039 85.0098C161.725 84.6946 161.006 84.125 159.647 84.125H154.772C152.002 84.125 151.469 86.9525 152.035 88.3906L154.585 94.6615ZM166.562 99.5625H144.598C143.799 99.5625 143 100.013 143 101.005V108.5H166.562V99.5625Z" fill="white"/>
</g>
</g>
<circle cx="27" cy="27" r="25.5" fill="#E371BB" stroke="white" stroke-width="3"/>
<mask id="mask3_1963_136" style="mask-type:alpha" maskUnits="userSpaceOnUse" x="1" y="1" width="52" height="52">
<circle cx="27.0001" cy="27.0011" r="25.0714" fill="#E371BB"/>
</mask>
<g mask="url(#mask3_1963_136)">
<path d="M35.0896 19.3156C35.3388 19.304 35.5732 19.1938 35.7412 19.0094C35.9093 18.8249 35.9971 18.5813 35.9855 18.332C35.9738 18.0828 35.8637 17.8484 35.6792 17.6804C35.4948 17.5124 35.2511 17.4245 35.0019 17.4362L34.6496 17.4524L34.6334 17.1C34.6276 16.9766 34.5976 16.8555 34.5451 16.7437C34.4925 16.6319 34.4185 16.5316 34.3271 16.4484C34.2358 16.3652 34.129 16.3008 34.0128 16.2589C33.8966 16.217 33.7732 16.1984 33.6498 16.2041C33.5264 16.2099 33.4054 16.2399 33.2935 16.2925C33.1817 16.345 33.0814 16.4191 32.9982 16.5104C32.915 16.6017 32.8506 16.7085 32.8087 16.8248C32.7668 16.941 32.7482 17.0643 32.754 17.1877L32.8578 19.4195L35.0896 19.3156ZM35.5245 22.0861L35.5119 22.3579L35.2401 22.3453C35.1446 22.3403 35.0491 22.3542 34.9591 22.3863C34.869 22.4183 34.7862 22.4679 34.7153 22.5321C34.6445 22.5963 34.5871 22.6738 34.5463 22.7603C34.5055 22.8468 34.4823 22.9404 34.4778 23.0359C34.4734 23.1314 34.4879 23.2269 34.5205 23.3167C34.5531 23.4066 34.6031 23.4891 34.6677 23.5596C34.7323 23.6301 34.8102 23.6871 34.8969 23.7273C34.9836 23.7676 35.0774 23.7903 35.173 23.7941L36.8932 23.8739L36.973 22.1537C36.9774 22.0586 36.9631 21.9635 36.9308 21.874C36.8985 21.7844 36.8489 21.7021 36.7847 21.6317C36.7206 21.5613 36.6433 21.5042 36.5571 21.4637C36.4709 21.4232 36.3776 21.4001 36.2825 21.3957C36.1874 21.3912 36.0924 21.4056 36.0028 21.4379C35.9132 21.4702 35.8309 21.5198 35.7605 21.5839C35.6901 21.648 35.6331 21.7254 35.5926 21.8116C35.5521 21.8977 35.5289 21.991 35.5245 22.0861Z" fill="white"/>
<path d="M32.0368 14.9875C32.3095 14.9875 32.5305 14.7664 32.5305 14.4938C32.5305 14.2211 32.3095 14 32.0368 14C31.7641 14 31.543 14.2211 31.543 14.4938C31.543 14.7664 31.7641 14.9875 32.0368 14.9875Z" fill="white"/>
<path d="M36.9742 16.4563C37.2469 16.4563 37.468 16.2352 37.468 15.9625C37.468 15.6898 37.2469 15.4688 36.9742 15.4688C36.7015 15.4688 36.4805 15.6898 36.4805 15.9625C36.4805 16.2352 36.7015 16.4563 36.9742 16.4563Z" fill="white"/>
<path d="M32.5299 21.8899C32.8026 21.8899 33.0236 21.6688 33.0236 21.3961C33.0236 21.1234 32.8026 20.9023 32.5299 20.9023C32.2572 20.9023 32.0361 21.1234 32.0361 21.3961C32.0361 21.6688 32.2572 21.8899 32.5299 21.8899Z" fill="white"/>
<path d="M19.1102 19.3217L21.3419 19.4256L21.4458 17.1938C21.4527 16.9474 21.3627 16.7081 21.195 16.5274C21.0273 16.3467 20.7954 16.2391 20.5491 16.2276C20.3029 16.2161 20.062 16.3017 19.8782 16.466C19.6944 16.6303 19.5825 16.8602 19.5664 17.1061L19.5502 17.4585L19.1979 17.4423C18.9486 17.4307 18.705 17.5185 18.5205 17.6865C18.3361 17.8545 18.2259 18.0889 18.2143 18.3382C18.2027 18.5874 18.2905 18.831 18.4585 19.0155C18.6265 19.1999 18.8609 19.3101 19.1102 19.3217ZM17.2264 22.1594L17.3062 23.8797L19.0264 23.7999C19.1219 23.796 19.2157 23.7733 19.3025 23.733C19.3892 23.6928 19.4671 23.6358 19.5317 23.5653C19.5963 23.4949 19.6463 23.4123 19.6789 23.3224C19.7115 23.2326 19.726 23.1372 19.7215 23.0417C19.7171 22.9462 19.6938 22.8525 19.6531 22.766C19.6123 22.6796 19.5549 22.602 19.484 22.5378C19.4132 22.4736 19.3304 22.4241 19.2403 22.392C19.1502 22.36 19.0547 22.346 18.9593 22.351L18.6875 22.3636L18.6749 22.0919C18.6726 21.9952 18.6511 21.9 18.6115 21.8118C18.572 21.7236 18.5152 21.6442 18.4445 21.5782C18.3738 21.5123 18.2906 21.4612 18.1999 21.4279C18.1091 21.3945 18.0126 21.3797 17.9161 21.3842C17.8195 21.3887 17.7248 21.4124 17.6375 21.4541C17.5503 21.4957 17.4722 21.5544 17.408 21.6266C17.3437 21.6988 17.2946 21.7832 17.2634 21.8747C17.2322 21.9662 17.2196 22.063 17.2264 22.1594Z" fill="white"/>
<path d="M22.1627 14.9875C22.4354 14.9875 22.6565 14.7664 22.6565 14.4938C22.6565 14.2211 22.4354 14 22.1627 14C21.89 14 21.6689 14.2211 21.6689 14.4938C21.6689 14.7664 21.89 14.9875 22.1627 14.9875Z" fill="white"/>
<path d="M17.2242 16.4563C17.4969 16.4563 17.718 16.2352 17.718 15.9625C17.718 15.6898 17.4969 15.4688 17.2242 15.4688C16.9515 15.4688 16.7305 15.6898 16.7305 15.9625C16.7305 16.2352 16.9515 16.4563 17.2242 16.4563Z" fill="white"/>
<path d="M21.6676 21.8899C21.9403 21.8899 22.1613 21.6688 22.1613 21.3961C22.1613 21.1234 21.9403 20.9023 21.6676 20.9023C21.3949 20.9023 21.1738 21.1234 21.1738 21.3961C21.1738 21.6688 21.3949 21.8899 21.6676 21.8899Z" fill="white"/>
<path d="M27.1 23.6321C28.0527 23.6321 28.8281 22.8567 28.8281 21.9039C28.8281 20.9512 28.0527 20.1758 27.1 20.1758C26.1473 20.1758 25.3719 20.9512 25.3719 21.9039C25.3719 22.8567 26.1473 23.6321 27.1 23.6321ZM27.1 20.6695C27.7806 20.6695 28.3344 21.2233 28.3344 21.9039C28.3344 22.5845 27.7806 23.1383 27.1 23.1383C26.4194 23.1383 25.8656 22.5845 25.8656 21.9039C25.8656 21.2233 26.4194 20.6695 27.1 20.6695ZM16 34.0009C16.1264 35.6556 17.5133 36.9634 19.1999 36.9634H35.0001C36.6867 36.9634 38.0736 35.6556 38.2 34.0009H16Z" fill="white"/>
<path d="M16.9824 33.5044H18.9586C19.0447 30.7042 20.5868 28.113 23.0276 26.6977C23.0841 26.6666 23.1505 26.6589 23.2127 26.6762C23.2748 26.6934 23.3277 26.7343 23.3601 26.7901C23.3924 26.8459 23.4017 26.9122 23.3858 26.9747C23.37 27.0372 23.3303 27.0911 23.2752 27.1247C20.9862 28.4515 19.5381 30.8792 19.4524 33.504H37.2204C37.0889 28.0364 32.6005 23.6289 27.1016 23.6289C21.6028 23.6289 17.114 28.0364 16.9824 33.5044ZM27.1012 25.6043C28.1571 25.6043 29.1849 25.8042 30.1566 26.1988C30.1873 26.2105 30.2153 26.2283 30.239 26.251C30.2627 26.2737 30.2817 26.3009 30.2948 26.331C30.3079 26.3611 30.3148 26.3935 30.3152 26.4264C30.3156 26.4592 30.3095 26.4918 30.2971 26.5222C30.2848 26.5527 30.2665 26.5803 30.2433 26.6036C30.2201 26.6269 30.1926 26.6453 30.1622 26.6577C30.1318 26.6702 30.0992 26.6765 30.0664 26.6762C30.0336 26.676 30.0011 26.6692 29.9709 26.6562C29.0596 26.286 28.0849 26.0964 27.1012 26.0981C27.0358 26.0981 26.973 26.0721 26.9267 26.0258C26.8804 25.9795 26.8544 25.9167 26.8544 25.8512C26.8544 25.7857 26.8804 25.7229 26.9267 25.6766C26.973 25.6303 27.0358 25.6043 27.1012 25.6043Z" fill="white"/>
</g>
<circle cx="784" cy="27" r="25.5" fill="#E371BB" stroke="white" stroke-width="3"/>
<mask id="mask4_1963_136" style="mask-type:alpha" maskUnits="userSpaceOnUse" x="758" y="1" width="52" height="52">
<circle cx="784" cy="27.0011" r="25.0714" fill="#E371BB"/>
</mask>
<g mask="url(#mask4_1963_136)">
<path d="M792.949 36.2851C792.459 36.2982 791.976 36.1628 791.563 35.8966C790.838 35.4638 790.009 35.2354 789.164 35.2354C788.319 35.2354 787.49 35.4638 786.765 35.8966C786.353 36.1628 785.87 36.2982 785.379 36.2851C784.892 36.3001 784.411 36.1644 784.004 35.8966C783.283 35.4483 782.448 35.2185 781.599 35.2352C780.754 35.22 779.923 35.4497 779.205 35.8966C778.797 36.1625 778.317 36.298 777.83 36.2851C777.339 36.2982 776.856 36.1628 776.444 35.8966C775.727 35.448 774.895 35.2181 774.05 35.2352C773.771 35.2352 773.504 35.3458 773.308 35.5427C773.111 35.7396 773 36.0066 773 36.2851C773 36.5636 773.111 36.8306 773.308 37.0275C773.504 37.2245 773.771 37.3351 774.05 37.3351C774.537 37.3201 775.018 37.4558 775.425 37.7236C776.146 38.1719 776.981 38.4017 777.83 38.385C778.675 38.402 779.507 38.1722 780.224 37.7236C780.632 37.4576 781.112 37.3222 781.599 37.3351C782.09 37.322 782.573 37.4574 782.985 37.7236C783.702 38.1722 784.534 38.402 785.379 38.385C786.228 38.4017 787.063 38.1719 787.783 37.7236C788.195 37.4562 788.679 37.3207 789.169 37.3351C789.657 37.3201 790.137 37.4558 790.545 37.7236C791.266 38.1702 792.101 38.3999 792.949 38.385C793.228 38.385 793.495 38.2744 793.692 38.0775C793.889 37.8806 793.999 37.6135 793.999 37.3351C793.999 37.0566 793.889 36.7895 793.692 36.5926C793.495 36.3957 793.228 36.2851 792.949 36.2851ZM774.05 33.1352C774.537 33.1203 775.018 33.2559 775.425 33.5237C776.146 33.9721 776.981 34.2018 777.83 34.1852C778.675 34.2022 779.507 33.9723 780.224 33.5237C780.632 33.2578 781.112 33.1223 781.599 33.1352C782.09 33.1222 782.573 33.2576 782.985 33.5237C783.702 33.9723 784.534 34.2022 785.379 34.1852C786.228 34.2018 787.063 33.9721 787.783 33.5237C788.195 33.2564 788.679 33.1208 789.169 33.1352C789.657 33.1203 790.137 33.2559 790.545 33.5237C791.266 33.9704 792.101 34.2 792.949 34.1852C793.228 34.1852 793.495 34.0746 793.692 33.8777C793.889 33.6808 793.999 33.4137 793.999 33.1352C793.999 32.8568 793.889 32.5897 793.692 32.3928C793.495 32.1959 793.228 32.0853 792.949 32.0853C792.459 32.0983 791.976 31.9629 791.563 31.6968C790.847 31.2482 790.015 31.0183 789.169 31.0353C789.012 31.0353 788.886 31.0353 788.749 31.0353V21.0607C788.708 20.643 788.834 20.2258 789.099 19.9009C789.365 19.576 789.749 19.37 790.167 19.3283C790.585 19.2865 791.002 19.4124 791.327 19.6782C791.652 19.944 791.858 20.328 791.899 20.7457C791.927 20.8836 791.981 21.0147 792.06 21.1315C792.138 21.2484 792.238 21.3486 792.355 21.4266C792.472 21.5046 792.604 21.5588 792.741 21.5861C792.879 21.6134 793.021 21.6132 793.159 21.5857C793.297 21.5581 793.428 21.5036 793.545 21.4254C793.662 21.3471 793.762 21.2467 793.84 21.1297C793.918 21.0127 793.972 20.8814 794 20.7435C794.027 20.6056 794.027 20.4636 793.999 20.3257C793.902 19.3511 793.421 18.4551 792.663 17.8348C791.905 17.2146 790.931 16.9209 789.957 17.0183C788.982 17.1158 788.086 17.5964 787.466 18.3545C786.846 19.1126 786.552 20.0861 786.649 21.0607V23.6856H778.25V21.0607C778.208 20.643 778.334 20.2258 778.6 19.9009C778.866 19.576 779.25 19.37 779.667 19.3283C780.085 19.2865 780.502 19.4124 780.827 19.6782C781.152 19.944 781.358 20.328 781.4 20.7457C781.455 21.0242 781.619 21.2691 781.856 21.4266C781.973 21.5046 782.104 21.5588 782.242 21.5861C782.38 21.6134 782.522 21.6132 782.66 21.5857C782.798 21.5581 782.929 21.5036 783.045 21.4254C783.162 21.3471 783.263 21.2467 783.341 21.1297C783.419 21.0127 783.473 20.8814 783.5 20.7435C783.527 20.6056 783.527 20.4636 783.5 20.3257C783.402 19.3511 782.921 18.4551 782.163 17.8348C781.405 17.2146 780.432 16.9209 779.457 17.0183C778.483 17.1158 777.587 17.5964 776.966 18.3545C776.346 19.1126 776.052 20.0861 776.15 21.0607V31.5603C775.506 31.2102 774.783 31.0295 774.05 31.0353C773.771 31.0353 773.504 31.1459 773.308 31.3428C773.111 31.5397 773 31.8068 773 32.0853C773 32.3637 773.111 32.6308 773.308 32.8277C773.504 33.0246 773.771 33.1352 774.05 33.1352ZM784.004 31.6968C783.283 31.2484 782.448 31.0187 781.599 31.0353C780.754 31.0201 779.923 31.2498 779.205 31.6968C778.917 31.8913 778.592 32.0236 778.25 32.0853V29.9853H786.649V31.7493C786.268 31.9831 785.826 32.0999 785.379 32.0853C784.892 32.1002 784.411 31.9646 784.004 31.6968ZM786.649 25.7855V27.8854H778.25V25.7855H786.649Z" fill="white"/>
</g>
</svg>
