<svg width="24" height="24" viewBox="0 0 24 24" fill="none" xmlns="http://www.w3.org/2000/svg">
<path d="M2 12C2 7.286 2 4.929 3.464 3.464C4.93 2 7.286 2 12 2C16.714 2 19.071 2 20.535 3.464C22 4.93 22 7.286 22 12C22 16.714 22 19.071 20.535 20.535C19.072 22 16.714 22 12 22C7.286 22 4.929 22 3.464 20.535C2 19.072 2 16.714 2 12Z" stroke="#D90D92"/>
<path d="M11.9915 16.9837L11.9915 7.00068" stroke="#D90D92" stroke-width="1.64706" stroke-linecap="round" stroke-linejoin="round"/>
<path d="M6.99971 11.9915L16.9827 11.9915" stroke="#D90D92" stroke-width="1.64706" stroke-linecap="round" stroke-linejoin="round"/>
</svg>
