<svg width="34" height="33" viewBox="0 0 34 33" fill="none" xmlns="http://www.w3.org/2000/svg">
<g clip-path="url(#clip0_612_5)">
<path d="M1.67423 17.546C2.89113 20.2411 4.9636 23.1608 7.35989 25.5571C9.91579 28.113 12.7355 30.1371 15.2998 31.2556C16.6959 31.8649 17.9448 32.1696 18.9963 32.1696C20.0415 32.1696 20.8912 31.8678 21.4943 31.2644L23.913 28.8464C24.6478 28.1109 24.5819 26.849 23.7659 26.0326L20.2019 22.4681C19.3851 21.6522 18.1224 21.5867 17.3881 22.3215L16.2783 23.4312C15.9707 23.6613 14.0699 23.0758 11.9316 20.9374C9.79201 18.7983 9.20523 16.8963 9.43653 16.5916L10.5476 15.4806C11.2823 14.7454 11.2165 13.4827 10.4005 12.6667L6.83562 9.10273C6.0188 8.28675 4.7569 8.22049 4.02176 8.95604L1.6038 11.374C0.396494 12.5809 0.421916 14.7729 1.67423 17.546ZM2.78277 12.5525L5.20115 10.1346C5.21782 10.1179 5.25116 10.1079 5.29408 10.1079C5.38827 10.1079 5.53121 10.155 5.65748 10.2813L9.22149 13.8453C9.40569 14.0295 9.42153 14.2491 9.3686 14.302L8.25756 15.4127C6.87646 16.7946 8.46718 19.8306 10.7526 22.116C11.8908 23.2537 13.1423 24.163 14.2766 24.6752C16.1437 25.5187 17.0701 24.997 17.4556 24.6106L18.5666 23.5C18.62 23.4467 18.8388 23.4629 19.0234 23.6467L22.587 27.2111C22.7712 27.3953 22.787 27.6145 22.7341 27.6675L20.3157 30.0858C19.6447 30.7572 18.019 30.6234 15.9665 29.7274C13.5886 28.6902 10.9506 26.7902 8.53844 24.3785C6.27885 22.1189 4.33098 19.378 3.19327 16.8596C2.27393 14.8246 2.12057 13.2147 2.78277 12.5525Z" fill="white"/>
<path fill-rule="evenodd" clip-rule="evenodd" d="M30.4708 2.62756C28.7787 0.934062 26.5284 0.000951854 24.1309 0C19.1909 0 15.1704 4.01897 15.1685 8.95895C15.1678 10.538 15.5805 12.0794 16.3648 13.4381L15.0933 18.0809L19.8444 16.8351C21.1534 17.5488 22.6273 17.925 24.1273 17.9256H24.131C29.0704 17.9256 33.0913 13.9061 33.0933 8.9661C33.0943 6.57211 32.1629 4.32105 30.4708 2.62756ZM24.131 16.4124H24.1279C22.7913 16.4118 21.4802 16.0529 20.3366 15.3744L20.0645 15.213L17.2452 15.9523L17.9977 13.2043L17.8206 12.9226C17.0749 11.7369 16.6811 10.3665 16.6817 8.95951C16.6833 4.8536 20.025 1.5132 24.1339 1.5132C26.1236 1.51396 27.9939 2.28958 29.4004 3.69715C30.8068 5.10472 31.5809 6.97572 31.5801 8.96551C31.5784 13.0717 28.2368 16.4124 24.131 16.4124ZM28.217 10.8351C27.9931 10.7231 26.8921 10.1815 26.6868 10.1068C26.4815 10.0321 26.3323 9.99471 26.1829 10.2188C26.0337 10.4429 25.6045 10.9472 25.4738 11.0966C25.3432 11.246 25.2126 11.2647 24.9887 11.1526C24.7647 11.0406 24.0432 10.8042 23.1878 10.0415C22.5221 9.44793 22.0726 8.71476 21.942 8.49066C21.8114 8.26654 21.9281 8.14536 22.0402 8.03377C22.141 7.93346 22.2642 7.7723 22.3761 7.64156C22.4881 7.51084 22.5254 7.41746 22.6 7.26807C22.6747 7.11865 22.6374 6.9879 22.5814 6.87585C22.5254 6.7638 22.0776 5.6619 21.8909 5.21367C21.7092 4.77714 21.5245 4.8362 21.3871 4.82937C21.2566 4.82287 21.1072 4.82148 20.9579 4.82148C20.8086 4.82148 20.566 4.87752 20.3607 5.10162C20.1555 5.32575 19.577 5.86735 19.577 6.96923C19.577 8.07111 20.3794 9.13563 20.4914 9.28504C20.6033 9.43446 22.0704 11.6957 24.3169 12.6654C24.8512 12.896 25.2683 13.0338 25.5935 13.137C26.13 13.3073 26.6182 13.2833 27.004 13.2257C27.4343 13.1614 28.3289 12.6841 28.5156 12.1612C28.7022 11.6382 28.7022 11.19 28.6462 11.0966C28.5902 11.0032 28.4409 10.9472 28.217 10.8351Z" fill="white"/>
</g>
<defs>
<clipPath id="clip0_612_5">
<rect width="34" height="33" fill="white"/>
</clipPath>
</defs>
</svg>
