<svg width="34" height="33" viewBox="0 0 34 33" fill="none" xmlns="http://www.w3.org/2000/svg">
<path d="M1.67407 17.5461C2.89097 20.2412 4.96344 23.1609 7.35973 25.5572C9.91563 28.1131 12.7353 30.1372 15.2996 31.2557C16.6957 31.865 17.9446 32.1697 18.9961 32.1697C20.0413 32.1697 20.891 31.8679 21.4941 31.2645L23.9128 28.8465C24.6476 28.111 24.5817 26.8491 23.7657 26.0327L20.2017 22.4682C19.3849 21.6523 18.1222 21.5868 17.3879 22.3216L16.2781 23.4313C15.9705 23.6614 14.0697 23.0759 11.9314 20.9375C9.79185 18.7984 9.20507 16.8964 9.43637 16.5917L10.5474 15.4807C11.2821 14.7455 11.2163 13.4828 10.4003 12.6668L6.83546 9.10281C6.01864 8.28683 4.75674 8.22057 4.0216 8.95612L1.60364 11.3741C0.39633 12.581 0.421752 14.773 1.67407 17.5461ZM2.78261 12.5526L5.20099 10.1347C5.21766 10.118 5.251 10.108 5.29392 10.108C5.38811 10.108 5.53105 10.1551 5.65732 10.2814L9.22133 13.8454C9.40553 14.0296 9.42137 14.2492 9.36844 14.3021L8.2574 15.4128C6.8763 16.7947 8.46702 19.8307 10.7524 22.1161C11.8906 23.2538 13.1421 24.1631 14.2764 24.6753C16.1435 25.5188 17.0699 24.9971 17.4554 24.6107L18.5664 23.5001C18.6198 23.4468 18.8386 23.463 19.0232 23.6468L22.5868 27.2112C22.771 27.3954 22.7868 27.6146 22.7339 27.6676L20.3155 30.0859C19.6445 30.7573 18.0188 30.6235 15.9663 29.7275C13.5884 28.6903 10.9504 26.7903 8.53828 24.3786C6.27869 22.119 4.33082 19.3781 3.19311 16.8597C2.27377 14.8247 2.12041 13.2148 2.78261 12.5526Z" fill="#D90D92"/>
<path fill-rule="evenodd" clip-rule="evenodd" d="M30.471 2.62756C28.7789 0.934062 26.5286 0.000951854 24.1311 0C19.1911 0 15.1706 4.01897 15.1687 8.95895C15.168 10.538 15.5807 12.0794 16.365 13.4381L15.0935 18.0809L19.8446 16.8351C21.1536 17.5488 22.6275 17.925 24.1275 17.9256H24.1312C29.0706 17.9256 33.0915 13.9061 33.0935 8.9661C33.0945 6.57211 32.1631 4.32105 30.471 2.62756ZM24.1312 16.4124H24.1281C22.7915 16.4118 21.4804 16.0529 20.3368 15.3744L20.0647 15.213L17.2454 15.9523L17.9979 13.2043L17.8208 12.9226C17.0751 11.7369 16.6813 10.3665 16.6819 8.95951C16.6835 4.8536 20.0252 1.5132 24.1341 1.5132C26.1238 1.51396 27.9941 2.28958 29.4006 3.69715C30.807 5.10472 31.5811 6.97572 31.5803 8.96551C31.5786 13.0717 28.237 16.4124 24.1312 16.4124ZM28.2172 10.8351C27.9933 10.7231 26.8923 10.1815 26.687 10.1068C26.4817 10.0321 26.3325 9.99471 26.1831 10.2188C26.0339 10.4429 25.6047 10.9472 25.474 11.0966C25.3434 11.246 25.2128 11.2647 24.9889 11.1526C24.7649 11.0406 24.0434 10.8042 23.188 10.0415C22.5223 9.44793 22.0728 8.71476 21.9422 8.49066C21.8116 8.26654 21.9283 8.14536 22.0404 8.03377C22.1412 7.93346 22.2644 7.7723 22.3763 7.64156C22.4883 7.51084 22.5256 7.41746 22.6002 7.26807C22.6749 7.11865 22.6376 6.9879 22.5816 6.87585C22.5256 6.7638 22.0778 5.6619 21.8911 5.21367C21.7094 4.77714 21.5247 4.8362 21.3873 4.82937C21.2568 4.82287 21.1074 4.82148 20.9581 4.82148C20.8088 4.82148 20.5662 4.87752 20.3609 5.10162C20.1557 5.32575 19.5772 5.86735 19.5772 6.96923C19.5772 8.07111 20.3796 9.13563 20.4916 9.28504C20.6035 9.43446 22.0706 11.6957 24.3171 12.6654C24.8514 12.896 25.2685 13.0338 25.5937 13.137C26.1302 13.3073 26.6184 13.2833 27.0042 13.2257C27.4345 13.1614 28.3291 12.6841 28.5158 12.1612C28.7024 11.6382 28.7024 11.19 28.6464 11.0966C28.5904 11.0032 28.4411 10.9472 28.2172 10.8351Z" fill="#3F0664"/>
</svg>
